<svg xmlns="http://www.w3.org/2000/svg" viewBox="0 0 184 48" fill="none">
  <g clip-path="url(#a)">
    <path fill="#DC2626" d="M0 24C0 12.6863 0 7.02943 3.51472 3.51472 7.02943 0 12.6863 0 24 0c11.3137 0 16.9705 0 20.4853 3.51472C48 7.02943 48 12.6863 48 24c0 11.3137 0 16.9705-3.5147 20.4853C40.9705 48 35.3137 48 24 48c-11.3137 0-16.97057 0-20.48528-3.5147C0 40.9705 0 35.3137 0 24Z"/>
    <path fill="#fff" d="M28.8 31.2c.6628 0 1.2121.5425 1.0805 1.1921-.2327 1.1472-.7979 2.2105-1.6379 3.0505C27.1175 36.5678 25.5913 37.2 24 37.2c-1.5913 0-3.1174-.6322-4.2426-1.7574-.84-.84-1.4052-1.9033-1.6378-3.0505-.1317-.6496.4176-1.1921 1.0804-1.1921h9.6ZM31.3228 21.3318c-.6402.1715-1.0323.8412-.7077 1.419.3417.6082.8142 1.1389 1.3891 1.5509.9027.6468 2.0016.9607 3.1098.888 1.1081-.0726 2.1568-.5272 2.9673-1.2863.8106-.7591 1.3327-1.7759 1.4777-2.8769.1449-1.101-.0963-2.2182-.6827-3.1613-.5865-.9429-1.4818-1.6534-2.5333-2.0104-1.0516-.357-2.1944-.3383-3.2337.0529-.6619.2491-1.2557.6395-1.7431 1.1384-.4631.4741-.2578 1.2226.3162 1.5539l.6088.3515c.9258.5346.7432 1.9217-.2895 2.1984l-.6789.1819ZM16.6774 21.3318c.6402.1715 1.0322.8412.7076 1.419-.3416.6082-.8142 1.1389-1.389 1.5509-.9026.6468-2.0017.9607-3.1098.888-1.1082-.0726-2.1568-.5272-2.96736-1.2863-.81051-.7591-1.33274-1.7759-1.47769-2.8769-.14495-1.101.09633-2.2182.68276-3.1613.58642-.9429 1.48169-1.6534 2.53329-2.0104 1.0515-.357 2.1944-.3383 3.2337.0529.6618.2491 1.2557.6395 1.7431 1.1384.4631.4741.2577 1.2226-.3163 1.5539l-.6087.3515c-.9258.5346-.7432 1.9217.2894 2.1984l.679.1819Z"/>
    <path fill="currentColor" d="M74.016 12.6H79.2V35h-5.184V12.6ZM63.84 35h-5.184V12.6h5.184V35Zm10.56-9.184H63.456v-4.384H74.4v4.384Zm17.2998 9.44c-1.8347 0-3.4667-.384-4.896-1.152-1.408-.768-2.528-1.8133-3.36-3.136-.8107-1.344-1.216-2.8693-1.216-4.576 0-1.728.4053-3.2533 1.216-4.576.832-1.344 1.952-2.3893 3.36-3.136 1.4293-.768 3.0613-1.152 4.896-1.152 1.8133 0 3.4346.384 4.864 1.152 1.4293.7467 2.5493 1.7813 3.36 3.104.8102 1.3227 1.2162 2.8587 1.2162 4.608 0 1.7067-.406 3.232-1.2162 4.576-.8107 1.3227-1.9307 2.368-3.36 3.136-1.4294.768-3.0507 1.152-4.864 1.152Zm0-4.096c.832 0 1.5786-.192 2.24-.576.6613-.384 1.184-.928 1.568-1.632.384-.7253.576-1.5787.576-2.56 0-1.0027-.192-1.856-.576-2.56-.384-.704-.9067-1.248-1.568-1.632-.6614-.384-1.408-.576-2.24-.576-.832 0-1.5787.192-2.24.576-.6614.384-1.1947.928-1.6 1.632-.384.704-.576 1.5573-.576 2.56 0 .9813.192 1.8347.576 2.56.4053.704.9386 1.248 1.6 1.632.6613.384 1.408.576 2.24.576Zm20.3292 4.096c-1.835 0-3.467-.384-4.896-1.152-1.408-.768-2.528-1.8133-3.36-3.136-.811-1.344-1.216-2.8693-1.216-4.576 0-1.728.405-3.2533 1.216-4.576.832-1.344 1.952-2.3893 3.36-3.136 1.429-.768 3.061-1.152 4.896-1.152 1.813 0 3.434.384 4.864 1.152 1.429.7467 2.549 1.7813 3.36 3.104.81 1.3227 1.216 2.8587 1.216 4.608 0 1.7067-.406 3.232-1.216 4.576-.811 1.3227-1.931 2.368-3.36 3.136-1.43.768-3.051 1.152-4.864 1.152Zm0-4.096c.832 0 1.578-.192 2.24-.576.661-.384 1.184-.928 1.568-1.632.384-.7253.576-1.5787.576-2.56 0-1.0027-.192-1.856-.576-2.56-.384-.704-.907-1.248-1.568-1.632-.662-.384-1.408-.576-2.24-.576-.832 0-1.579.192-2.24.576-.662.384-1.195.928-1.6 1.632-.384.704-.576 1.5573-.576 2.56 0 .9813.192 1.8347.576 2.56.405.704.938 1.248 1.6 1.632.661.384 1.408.576 2.24.576Zm16.264.32.128-6.08 8.032-7.616h5.952l-7.712 7.84-2.592 2.112-3.808 3.744ZM124.165 35V11.256h4.992V35h-4.992Zm12.832 0-5.824-7.232 3.136-3.872L143.045 35h-6.048Zm15.479.256c-1.963 0-3.691-.384-5.184-1.152-1.472-.768-2.614-1.8133-3.424-3.136-.811-1.344-1.216-2.8693-1.216-4.576 0-1.728.394-3.2533 1.184-4.576.81-1.344 1.909-2.3893 3.296-3.136 1.386-.768 2.954-1.152 4.704-1.152 1.685 0 3.2.3627 4.544 1.088 1.365.704 2.442 1.728 3.232 3.072.789 1.3227 1.184 2.912 1.184 4.768 0 .192-.011.416-.032.672-.022.2347-.043.4587-.064.672h-13.984v-2.912h11.36l-1.92.864c0-.896-.182-1.6747-.544-2.336-.363-.6613-.864-1.1733-1.504-1.536-.64-.384-1.387-.576-2.24-.576-.854 0-1.611.192-2.272.576-.64.3627-1.142.8853-1.504 1.568-.363.6613-.544 1.4507-.544 2.368v.768c0 .9387.202 1.7707.608 2.496.426.704 1.013 1.248 1.76 1.632.768.3627 1.664.544 2.688.544.917 0 1.717-.1387 2.4-.416.704-.2773 1.344-.6933 1.92-1.248l2.656 2.88c-.79.896-1.782 1.5893-2.976 2.08-1.195.4693-2.571.704-4.128.704Zm18.395 0c-1.621 0-3.083-.3627-4.384-1.088-1.301-.7467-2.336-1.7813-3.104-3.104-.747-1.3227-1.12-2.88-1.12-4.672 0-1.8133.373-3.3813 1.12-4.704.768-1.3227 1.803-2.3467 3.104-3.072 1.301-.7253 2.763-1.088 4.384-1.088 1.451 0 2.72.32 3.808.96 1.088.64 1.931 1.6107 2.528 2.912s.896 2.9653.896 4.992c0 2.0053-.288 3.6693-.864 4.992-.576 1.3013-1.408 2.272-2.496 2.912-1.067.64-2.357.96-3.872.96Zm.864-4.096c.811 0 1.547-.192 2.208-.576.661-.384 1.184-.928 1.568-1.632.405-.7253.608-1.5787.608-2.56 0-1.0027-.203-1.856-.608-2.56-.384-.704-.907-1.248-1.568-1.632-.661-.384-1.397-.576-2.208-.576-.832 0-1.579.192-2.24.576-.661.384-1.195.928-1.6 1.632-.384.704-.576 1.5573-.576 2.56 0 .9813.192 1.8347.576 2.56.405.704.939 1.248 1.6 1.632.661.384 1.408.576 2.24.576Zm4.512 3.84v-3.52l.096-5.12-.32-5.088V11.256h4.992V35h-4.768Z"/>
  </g>
  <defs>
    <clipPath id="a">
      <path fill="#fff" d="M0 0h184v48H0z"/>
    </clipPath>
  </defs>
</svg>
