<svg width="197" height="48" viewBox="0 0 197 48" fill="none" xmlns="http://www.w3.org/2000/svg">
<g clip-path="url(#clip0_48_2)">
<path d="M36 23.8703C42.6274 23.8703 48 18.5267 48 11.9351C48 5.34354 42.6274 0 36 0C29.3726 0 24 5.34354 24 11.9351C24 18.5267 29.3726 23.8703 36 23.8703Z" fill="#4DA44F"/>
<path d="M36 47.7405C42.6274 47.7405 48 42.397 48 35.8054C48 29.2138 42.6274 23.8703 36 23.8703C29.3726 23.8703 24 29.2138 24 35.8054C24 42.397 29.3726 47.7405 36 47.7405Z" fill="#4DA44F"/>
<path d="M24 0H0V48H24V0Z" fill="#4DA44F"/>
<path d="M79.3864 12.7273V36H73.7614V12.7273H79.3864ZM104.043 21.1591H98.3608C98.285 20.5758 98.1297 20.0492 97.8949 19.5795C97.66 19.1098 97.3494 18.7083 96.9631 18.375C96.5767 18.0417 96.1184 17.7879 95.5881 17.6136C95.0653 17.4318 94.4858 17.3409 93.8494 17.3409C92.7206 17.3409 91.7472 17.6174 90.929 18.1705C90.1184 18.7235 89.4934 19.5227 89.054 20.5682C88.6222 21.6136 88.4062 22.8788 88.4062 24.3636C88.4062 25.9091 88.6259 27.2045 89.0653 28.25C89.5123 29.2879 90.1373 30.072 90.9403 30.6023C91.7509 31.125 92.7093 31.3864 93.8153 31.3864C94.4366 31.3864 95.0009 31.3068 95.5085 31.1477C96.0237 30.9886 96.4744 30.7576 96.8608 30.4545C97.2547 30.1439 97.5767 29.7689 97.8267 29.3295C98.0843 28.8826 98.2623 28.3788 98.3608 27.8182L104.043 27.8523C103.944 28.8826 103.645 29.8977 103.145 30.8977C102.652 31.8977 101.974 32.8106 101.111 33.6364C100.247 34.4545 99.1941 35.1061 97.9517 35.5909C96.7169 36.0758 95.3002 36.3182 93.7017 36.3182C91.5956 36.3182 89.7093 35.8561 88.0426 34.9318C86.3835 34 85.0729 32.6439 84.1108 30.8636C83.1487 29.0833 82.6676 26.9167 82.6676 24.3636C82.6676 21.803 83.1562 19.6326 84.1335 17.8523C85.1108 16.072 86.4328 14.7197 88.0994 13.7955C89.7661 12.8712 91.6335 12.4091 93.7017 12.4091C95.1108 12.4091 96.4138 12.6061 97.6108 13C98.8078 13.3864 99.8608 13.9545 100.77 14.7045C101.679 15.447 102.418 16.3598 102.986 17.4432C103.554 18.5265 103.906 19.7652 104.043 21.1591ZM129.227 24.3636C129.227 26.9242 128.735 29.0947 127.75 30.875C126.765 32.6553 125.432 34.0076 123.75 34.9318C122.076 35.8561 120.197 36.3182 118.114 36.3182C116.023 36.3182 114.14 35.8523 112.466 34.9205C110.792 33.9886 109.462 32.6364 108.477 30.8636C107.5 29.0833 107.011 26.9167 107.011 24.3636C107.011 21.803 107.5 19.6326 108.477 17.8523C109.462 16.072 110.792 14.7197 112.466 13.7955C114.14 12.8712 116.023 12.4091 118.114 12.4091C120.197 12.4091 122.076 12.8712 123.75 13.7955C125.432 14.7197 126.765 16.072 127.75 17.8523C128.735 19.6326 129.227 21.803 129.227 24.3636ZM123.477 24.3636C123.477 22.8485 123.261 21.5682 122.83 20.5227C122.405 19.4773 121.792 18.6856 120.989 18.1477C120.193 17.6098 119.235 17.3409 118.114 17.3409C117 17.3409 116.042 17.6098 115.239 18.1477C114.436 18.6856 113.818 19.4773 113.386 20.5227C112.962 21.5682 112.75 22.8485 112.75 24.3636C112.75 25.8788 112.962 27.1591 113.386 28.2045C113.818 29.25 114.436 30.0417 115.239 30.5795C116.042 31.1174 117 31.3864 118.114 31.3864C119.235 31.3864 120.193 31.1174 120.989 30.5795C121.792 30.0417 122.405 29.25 122.83 28.2045C123.261 27.1591 123.477 25.8788 123.477 24.3636ZM152.318 12.7273V36H147.545L138.284 22.5682H138.136V36H132.511V12.7273H137.352L146.511 26.1364H146.705V12.7273H152.318ZM168.435 19.7045C168.359 18.8712 168.022 18.2235 167.423 17.7614C166.832 17.2917 165.988 17.0568 164.889 17.0568C164.162 17.0568 163.556 17.1515 163.071 17.3409C162.586 17.5303 162.223 17.7917 161.98 18.125C161.738 18.4508 161.613 18.8258 161.605 19.25C161.59 19.5985 161.658 19.9053 161.81 20.1705C161.969 20.4356 162.196 20.6705 162.491 20.875C162.795 21.072 163.158 21.2462 163.582 21.3977C164.007 21.5492 164.484 21.6818 165.014 21.7955L167.014 22.25C168.166 22.5 169.181 22.8333 170.06 23.25C170.946 23.6667 171.688 24.1629 172.287 24.7386C172.893 25.3144 173.351 25.9773 173.662 26.7273C173.973 27.4773 174.132 28.3182 174.139 29.25C174.132 30.7197 173.76 31.9811 173.026 33.0341C172.291 34.0871 171.234 34.8939 169.855 35.4545C168.484 36.0152 166.829 36.2955 164.889 36.2955C162.942 36.2955 161.245 36.0038 159.798 35.4205C158.351 34.8371 157.226 33.9508 156.423 32.7614C155.62 31.572 155.207 30.0682 155.185 28.25H160.571C160.616 29 160.817 29.625 161.173 30.125C161.529 30.625 162.018 31.0038 162.639 31.2614C163.268 31.5189 163.995 31.6477 164.821 31.6477C165.579 31.6477 166.223 31.5455 166.753 31.3409C167.291 31.1364 167.704 30.8523 167.991 30.4886C168.279 30.125 168.427 29.7083 168.435 29.2386C168.427 28.7992 168.291 28.4242 168.026 28.1136C167.76 27.7955 167.351 27.5227 166.798 27.2955C166.253 27.0606 165.556 26.8447 164.707 26.6477L162.276 26.0795C160.26 25.6174 158.673 24.8712 157.514 23.8409C156.355 22.803 155.779 21.4015 155.787 19.6364C155.779 18.197 156.166 16.9356 156.946 15.8523C157.726 14.7689 158.806 13.9242 160.185 13.3182C161.563 12.7121 163.135 12.4091 164.901 12.4091C166.704 12.4091 168.268 12.7159 169.594 13.3295C170.927 13.9356 171.961 14.7879 172.696 15.8864C173.431 16.9848 173.806 18.2576 173.821 19.7045H168.435ZM186.026 36.3182C184.215 36.3182 182.598 36.0303 181.173 35.4545C179.757 34.8712 178.643 34.0833 177.832 33.0909C177.029 32.0909 176.628 30.9621 176.628 29.7045C176.628 28.7424 176.859 27.8598 177.321 27.0568C177.783 26.2538 178.408 25.5871 179.196 25.0568C179.991 24.5189 180.878 24.1742 181.855 24.0227V23.8409C180.575 23.6061 179.526 23.0114 178.707 22.0568C177.897 21.1023 177.491 19.9848 177.491 18.7045C177.491 17.4924 177.859 16.4129 178.594 15.4659C179.336 14.5189 180.348 13.7727 181.628 13.2273C182.916 12.6818 184.382 12.4091 186.026 12.4091C187.67 12.4091 189.132 12.6818 190.412 13.2273C191.7 13.7727 192.711 14.5189 193.446 15.4659C194.188 16.4129 194.56 17.4924 194.56 18.7045C194.56 19.9924 194.147 21.1136 193.321 22.0682C192.503 23.0152 191.461 23.6061 190.196 23.8409V24.0227C191.166 24.1742 192.045 24.5189 192.832 25.0568C193.628 25.5871 194.257 26.2538 194.719 27.0568C195.188 27.8598 195.423 28.7424 195.423 29.7045C195.423 30.9621 195.018 32.0909 194.207 33.0909C193.397 34.0833 192.283 34.8712 190.866 35.4545C189.457 36.0303 187.844 36.3182 186.026 36.3182ZM186.026 32.3295C186.715 32.3295 187.321 32.2008 187.844 31.9432C188.366 31.678 188.776 31.3106 189.071 30.8409C189.374 30.3712 189.526 29.8409 189.526 29.25C189.526 28.6439 189.374 28.1061 189.071 27.6364C188.768 27.1667 188.351 26.7992 187.821 26.5341C187.298 26.2614 186.7 26.125 186.026 26.125C185.359 26.125 184.76 26.2614 184.23 26.5341C183.7 26.7992 183.283 27.1667 182.98 27.6364C182.677 28.1061 182.526 28.6439 182.526 29.25C182.526 29.8409 182.673 30.3712 182.969 30.8409C183.272 31.303 183.685 31.6667 184.207 31.9318C184.738 32.197 185.344 32.3295 186.026 32.3295ZM186.026 22.1591C186.616 22.1591 187.139 22.0379 187.594 21.7955C188.056 21.553 188.416 21.2159 188.673 20.7841C188.938 20.3523 189.071 19.8636 189.071 19.3182C189.071 18.7727 188.938 18.2917 188.673 17.875C188.416 17.4583 188.06 17.1326 187.605 16.8977C187.151 16.6553 186.624 16.5341 186.026 16.5341C185.435 16.5341 184.908 16.6553 184.446 16.8977C183.984 17.1326 183.624 17.4583 183.366 17.875C183.109 18.2917 182.98 18.7727 182.98 19.3182C182.98 19.8636 183.109 20.3523 183.366 20.7841C183.632 21.2083 183.995 21.5455 184.457 21.7955C184.92 22.0379 185.442 22.1591 186.026 22.1591Z" fill="currentColor"/>
</g>
<defs>
<clipPath id="clip0_48_2">
<rect width="197" height="48" fill="white"/>
</clipPath>
</defs>
</svg>
