<svg width="256" height="48" viewBox="0 0 256 48" fill="none" xmlns="http://www.w3.org/2000/svg">
<path d="M6.80732 39.9409H12.8825L30.0751 10.1623L47.5724 40.4683C48.7874 42.5728 47.2686 45.2034 44.8385 45.2034L32.0807 45.2035L27.0376 36.4685L30.0751 31.2072L35.1183 39.9422H41.1935L30.0751 20.6847L15.9193 45.2034H9.84412L9.84489 45.2021H3.76974L3.76896 45.2034H3.16145C0.731389 45.2034 -0.787398 42.5728 0.427633 40.4683L21.2662 4.37491C22.4812 2.27041 25.5188 2.27042 26.7338 4.37491L27.0376 4.90103L6.80732 39.9409Z" fill="url(#paint0_linear_708_26)"/>
<path d="M66.4104 36V13.408H71.4344V36H66.4104ZM81.0014 36.384C80.084 36.384 79.1774 36.2667 78.2814 36.032C77.4067 35.7973 76.5854 35.4667 75.8174 35.04C75.0707 34.592 74.4307 34.08 73.8974 33.504L76.6814 30.688C77.1934 31.2427 77.8014 31.68 78.5054 32C79.2094 32.2987 79.9774 32.448 80.8094 32.448C81.3854 32.448 81.8227 32.3627 82.1214 32.192C82.4414 32.0213 82.6014 31.7867 82.6014 31.488C82.6014 31.104 82.4094 30.816 82.0254 30.624C81.6627 30.4107 81.1934 30.2293 80.6174 30.08C80.0414 29.9093 79.4334 29.728 78.7934 29.536C78.1534 29.344 77.5454 29.0773 76.9694 28.736C76.3934 28.3947 75.924 27.9253 75.5614 27.328C75.1987 26.7093 75.0174 25.9307 75.0174 24.992C75.0174 23.9893 75.2734 23.1253 75.7854 22.4C76.2974 21.6533 77.0227 21.0667 77.9614 20.64C78.9 20.2133 79.9987 20 81.2574 20C82.58 20 83.796 20.2347 84.9054 20.704C86.036 21.152 86.9534 21.824 87.6574 22.72L84.8734 25.536C84.3827 24.96 83.828 24.5547 83.2094 24.32C82.612 24.0853 82.0254 23.968 81.4494 23.968C80.8947 23.968 80.4787 24.0533 80.2014 24.224C79.924 24.3733 79.7854 24.5973 79.7854 24.896C79.7854 25.216 79.9667 25.472 80.3294 25.664C80.692 25.856 81.1614 26.0267 81.7374 26.176C82.3134 26.3253 82.9214 26.5067 83.5614 26.72C84.2014 26.9333 84.8094 27.2213 85.3854 27.584C85.9614 27.9467 86.4307 28.4373 86.7934 29.056C87.156 29.6533 87.3374 30.4427 87.3374 31.424C87.3374 32.9387 86.7614 34.144 85.6094 35.04C84.4787 35.936 82.9427 36.384 81.0014 36.384ZM96.4896 36.32C95.0603 36.32 93.7803 35.968 92.6496 35.264C91.5403 34.56 90.655 33.6 89.9936 32.384C89.3536 31.168 89.0336 29.7813 89.0336 28.224C89.0336 26.6667 89.3536 25.28 89.9936 24.064C90.655 22.848 91.5403 21.888 92.6496 21.184C93.7803 20.48 95.0603 20.128 96.4896 20.128C97.535 20.128 98.4736 20.3307 99.3056 20.736C100.159 21.1413 100.852 21.7067 101.386 22.432C101.919 23.136 102.218 23.9467 102.282 24.864V31.584C102.218 32.5013 101.919 33.3227 101.386 34.048C100.874 34.752 100.191 35.3067 99.3376 35.712C98.4843 36.1173 97.535 36.32 96.4896 36.32ZM97.4816 31.904C98.527 31.904 99.3696 31.5627 100.01 30.88C100.65 30.176 100.97 29.2907 100.97 28.224C100.97 27.4987 100.82 26.8587 100.522 26.304C100.244 25.7493 99.839 25.3227 99.3056 25.024C98.7936 24.704 98.1963 24.544 97.5136 24.544C96.831 24.544 96.223 24.704 95.6896 25.024C95.1776 25.3227 94.7616 25.7493 94.4416 26.304C94.143 26.8587 93.9936 27.4987 93.9936 28.224C93.9936 28.928 94.143 29.5573 94.4416 30.112C94.7403 30.6667 95.1563 31.104 95.6896 31.424C96.223 31.744 96.8203 31.904 97.4816 31.904ZM100.778 36V31.808L101.514 28.032L100.778 24.256V20.448H105.578V36H100.778ZM115.521 36.32C114.092 36.32 112.812 35.968 111.681 35.264C110.572 34.56 109.686 33.6 109.025 32.384C108.385 31.168 108.065 29.7813 108.065 28.224C108.065 26.6667 108.385 25.28 109.025 24.064C109.686 22.848 110.572 21.888 111.681 21.184C112.812 20.48 114.092 20.128 115.521 20.128C116.566 20.128 117.505 20.3307 118.337 20.736C119.19 21.1413 119.884 21.7067 120.417 22.432C120.95 23.136 121.249 23.9467 121.313 24.864V31.584C121.249 32.5013 120.95 33.3227 120.417 34.048C119.905 34.752 119.222 35.3067 118.369 35.712C117.516 36.1173 116.566 36.32 115.521 36.32ZM116.513 31.904C117.558 31.904 118.401 31.5627 119.041 30.88C119.681 30.176 120.001 29.2907 120.001 28.224C120.001 27.4987 119.852 26.8587 119.553 26.304C119.276 25.7493 118.87 25.3227 118.337 25.024C117.825 24.704 117.228 24.544 116.545 24.544C115.862 24.544 115.254 24.704 114.721 25.024C114.209 25.3227 113.793 25.7493 113.473 26.304C113.174 26.8587 113.025 27.4987 113.025 28.224C113.025 28.928 113.174 29.5573 113.473 30.112C113.772 30.6667 114.188 31.104 114.721 31.424C115.254 31.744 115.852 31.904 116.513 31.904ZM119.809 36V31.808L120.545 28.032L119.809 24.256V20.448H124.609V36H119.809ZM135.576 36.352C133.976 36.352 132.525 36 131.224 35.296C129.923 34.592 128.899 33.6213 128.152 32.384C127.405 31.1467 127.032 29.76 127.032 28.224C127.032 26.6667 127.405 25.28 128.152 24.064C128.92 22.8267 129.955 21.856 131.256 21.152C132.557 20.448 134.019 20.096 135.64 20.096C136.856 20.096 137.965 20.3093 138.968 20.736C139.992 21.1413 140.899 21.76 141.688 22.592L138.552 25.728C138.189 25.3227 137.763 25.024 137.272 24.832C136.803 24.64 136.259 24.544 135.64 24.544C134.936 24.544 134.307 24.704 133.752 25.024C133.219 25.3227 132.792 25.7493 132.472 26.304C132.173 26.8373 132.024 27.4667 132.024 28.192C132.024 28.9173 132.173 29.5573 132.472 30.112C132.792 30.6667 133.229 31.104 133.784 31.424C134.339 31.744 134.957 31.904 135.64 31.904C136.28 31.904 136.845 31.7973 137.336 31.584C137.848 31.3493 138.285 31.0293 138.648 30.624L141.752 33.76C140.941 34.6133 140.024 35.264 139 35.712C137.976 36.1387 136.835 36.352 135.576 36.352ZM147.871 36L156.831 13.408H161.375L170.239 36H164.927L158.143 17.248H159.967L153.087 36H147.871ZM152.959 31.904V27.808H165.279V31.904H152.959ZM178.211 42.976C176.504 42.976 175 42.6773 173.699 42.08C172.419 41.504 171.405 40.6827 170.659 39.616L173.667 36.608C174.221 37.2693 174.84 37.7707 175.523 38.112C176.227 38.4533 177.069 38.624 178.051 38.624C179.267 38.624 180.216 38.3253 180.899 37.728C181.603 37.1307 181.955 36.288 181.955 35.2V31.232L182.787 27.84L182.051 24.448V20.448H186.851V35.072C186.851 36.672 186.477 38.0587 185.731 39.232C184.984 40.4053 183.96 41.3227 182.659 41.984C181.357 42.6453 179.875 42.976 178.211 42.976ZM177.987 35.52C176.557 35.52 175.288 35.1787 174.179 34.496C173.069 33.8133 172.195 32.8853 171.555 31.712C170.915 30.5387 170.595 29.2373 170.595 27.808C170.595 26.3573 170.915 25.056 171.555 23.904C172.195 22.7307 173.069 21.8133 174.179 21.152C175.288 20.4693 176.557 20.128 177.987 20.128C179.053 20.128 180.003 20.3307 180.835 20.736C181.688 21.12 182.371 21.6747 182.883 22.4C183.416 23.104 183.715 23.9253 183.779 24.864V30.784C183.715 31.7013 183.416 32.5227 182.883 33.248C182.371 33.952 181.688 34.5067 180.835 34.912C179.981 35.3173 179.032 35.52 177.987 35.52ZM178.915 31.168C179.597 31.168 180.184 31.0187 180.675 30.72C181.187 30.4213 181.571 30.0267 181.827 29.536C182.104 29.024 182.243 28.448 182.243 27.808C182.243 27.168 182.104 26.592 181.827 26.08C181.571 25.568 181.187 25.1627 180.675 24.864C180.184 24.5653 179.597 24.416 178.915 24.416C178.253 24.416 177.667 24.5653 177.155 24.864C176.643 25.1627 176.248 25.568 175.971 26.08C175.693 26.592 175.555 27.168 175.555 27.808C175.555 28.4053 175.693 28.9707 175.971 29.504C176.248 30.016 176.632 30.4213 177.123 30.72C177.635 31.0187 178.232 31.168 178.915 31.168ZM197.218 36.352C195.789 36.352 194.519 36.064 193.41 35.488C192.322 34.8907 191.469 34.08 190.85 33.056C190.231 32.0107 189.922 30.816 189.922 29.472V20.448H194.818V29.408C194.818 29.9413 194.903 30.4 195.074 30.784C195.266 31.168 195.543 31.4667 195.906 31.68C196.269 31.8933 196.706 32 197.218 32C197.943 32 198.519 31.776 198.946 31.328C199.373 30.8587 199.586 30.2187 199.586 29.408V20.448H204.482V29.44C204.482 30.8053 204.173 32.0107 203.554 33.056C202.935 34.08 202.082 34.8907 200.994 35.488C199.906 36.064 198.647 36.352 197.218 36.352ZM207.556 36V20.448H212.452V36H207.556ZM210.02 18.304C209.252 18.304 208.612 18.048 208.1 17.536C207.609 17.0027 207.364 16.3627 207.364 15.616C207.364 14.848 207.609 14.208 208.1 13.696C208.612 13.184 209.252 12.928 210.02 12.928C210.788 12.928 211.417 13.184 211.908 13.696C212.399 14.208 212.644 14.848 212.644 15.616C212.644 16.3627 212.399 17.0027 211.908 17.536C211.417 18.048 210.788 18.304 210.02 18.304ZM215.9 36V12.768H220.796V36H215.9ZM230.74 36.32C229.31 36.32 228.03 35.968 226.9 35.264C225.79 34.56 224.905 33.6 224.244 32.384C223.604 31.168 223.284 29.7813 223.284 28.224C223.284 26.6667 223.604 25.28 224.244 24.064C224.905 22.848 225.79 21.888 226.9 21.184C228.03 20.48 229.31 20.128 230.74 20.128C231.785 20.128 232.724 20.3307 233.556 20.736C234.409 21.1413 235.102 21.7067 235.636 22.432C236.169 23.136 236.468 23.9467 236.532 24.864V31.584C236.468 32.5013 236.169 33.3227 235.636 34.048C235.124 34.752 234.441 35.3067 233.588 35.712C232.734 36.1173 231.785 36.32 230.74 36.32ZM231.732 31.904C232.777 31.904 233.62 31.5627 234.26 30.88C234.9 30.176 235.22 29.2907 235.22 28.224C235.22 27.4987 235.07 26.8587 234.772 26.304C234.494 25.7493 234.089 25.3227 233.556 25.024C233.044 24.704 232.446 24.544 231.764 24.544C231.081 24.544 230.473 24.704 229.94 25.024C229.428 25.3227 229.012 25.7493 228.692 26.304C228.393 26.8587 228.244 27.4987 228.244 28.224C228.244 28.928 228.393 29.5573 228.692 30.112C228.99 30.6667 229.406 31.104 229.94 31.424C230.473 31.744 231.07 31.904 231.732 31.904ZM235.028 36V31.808L235.764 28.032L235.028 24.256V20.448H239.828V36H235.028ZM243.275 36V20.448H248.171V36H243.275ZM248.171 27.456L246.123 25.856C246.528 24.0427 247.211 22.6347 248.171 21.632C249.131 20.6293 250.464 20.128 252.171 20.128C252.918 20.128 253.568 20.2453 254.123 20.48C254.699 20.6933 255.2 21.0347 255.627 21.504L252.715 25.184C252.502 24.9493 252.235 24.768 251.915 24.64C251.595 24.512 251.232 24.448 250.827 24.448C250.016 24.448 249.366 24.704 248.875 25.216C248.406 25.7067 248.171 26.4533 248.171 27.456Z" fill="currentColor" fill-opacity="0.87"/>
<defs>
<linearGradient id="paint0_linear_708_26" x1="24" y1="2.79654" x2="24" y2="45.2035" gradientUnits="userSpaceOnUse">
<stop stop-color="#00ADFF"/>
<stop offset="1" stop-color="#0067FF"/>
</linearGradient>
</defs>
</svg>
