<svg width="369" height="48" viewBox="0 0 369 48" fill="none" xmlns="http://www.w3.org/2000/svg">
<g clip-path="url(#clip0_51_18)">
<path d="M258.915 47.7297H345.153C348.285 47.7297 351.386 47.1129 354.279 45.9146C357.172 44.7163 359.801 42.9599 362.015 40.7458C364.23 38.5316 365.986 35.903 367.185 33.01C368.383 30.1171 369 27.0164 369 23.8851V23.8851C369.005 20.7504 368.392 17.6453 367.196 14.7477C366 11.8501 364.245 9.21669 362.03 6.99823C359.815 4.77976 357.184 3.01976 354.288 1.81893C351.392 0.618093 348.288 -4.5179e-06 345.153 0L258.915 0C255.78 -4.5179e-06 252.676 0.618093 249.78 1.81893C246.884 3.01976 244.254 4.77976 242.039 6.99823C239.824 9.21669 238.068 11.8501 236.872 14.7477C235.676 17.6453 235.063 20.7504 235.068 23.8851V23.8851C235.068 30.2091 237.581 36.274 242.053 40.7458C246.525 45.2175 252.591 47.7297 258.915 47.7297ZM13.6307 47.7971H24.1573V9.33812H37.788V0H0V9.31113H13.6307V47.7971ZM51.5536 47.7971H62.0803V11.1329H62.2153L74.2939 47.7702H82.3914L94.8749 11.1329H95.0099V47.7702H105.537V0H89.679L78.6126 31.1721H78.4776L67.4786 0H51.5536V47.7971ZM120.301 0.161933H136.091C139.767 0.167582 143.429 0.620729 146.995 1.51137C150.243 2.28183 153.304 3.69506 155.997 5.66765C158.602 7.62579 160.698 10.1803 162.111 13.1166C163.707 16.6051 164.479 20.4146 164.364 24.2494C164.437 27.7823 163.689 31.2838 162.178 34.4782C160.771 37.3527 158.754 39.8856 156.267 41.9001C153.721 43.9409 150.814 45.4837 147.697 46.4477C144.403 47.4937 140.964 48.0174 137.508 47.9996H120.301V0.161933ZM130.827 38.2161H136.226C138.496 38.2316 140.761 37.9825 142.974 37.4739C144.948 37.0732 146.815 36.2592 148.453 35.0854C150.016 33.9028 151.259 32.349 152.07 30.5648C153.017 28.4065 153.478 26.066 153.419 23.7097C153.459 21.5983 152.997 19.5076 152.07 17.6102C151.228 15.9287 150.014 14.4612 148.52 13.319C146.968 12.1661 145.215 11.3105 143.352 10.7955C141.296 10.2207 139.17 9.93462 137.036 9.94537H130.827V38.2161ZM179.615 0.161933H197.429C199.52 0.162952 201.608 0.311761 203.677 0.607248C205.641 0.861565 207.545 1.45515 209.305 2.36152C210.949 3.21455 212.344 4.47917 213.354 6.03199C214.474 7.92688 215.013 10.1085 214.906 12.3069C214.998 14.7549 214.197 17.153 212.652 19.0541C211.075 20.8806 208.996 22.2038 206.673 22.8595V22.9405C208.168 23.1538 209.617 23.6096 210.965 24.2899C212.209 24.9148 213.33 25.7607 214.272 26.7864C215.204 27.8135 215.924 29.0151 216.39 30.3219C216.893 31.7056 217.144 33.168 217.133 34.6401C217.214 36.8574 216.651 39.0507 215.513 40.9555C214.454 42.6135 213.021 44.0001 211.329 45.0038C209.551 46.0715 207.601 46.8247 205.567 47.2304C203.469 47.6802 201.329 47.9063 199.183 47.9051H179.615V0.161933ZM190.141 19.2565H197.766C198.575 19.2609 199.381 19.1703 200.169 18.9866C200.922 18.8231 201.639 18.526 202.287 18.1095C202.92 17.7017 203.443 17.1458 203.812 16.4902C204.208 15.743 204.403 14.9062 204.379 14.0612C204.423 13.2023 204.216 12.3493 203.785 11.6052C203.367 10.9675 202.796 10.4436 202.125 10.0803C201.373 9.70277 200.568 9.44333 199.737 9.31113C198.914 9.15205 198.078 9.07073 197.24 9.06823H190.087L190.141 19.2565ZM190.141 39.0258H199.588C200.419 39.028 201.247 38.9375 202.058 38.7559C202.864 38.5911 203.629 38.2702 204.312 37.8113C204.993 37.362 205.561 36.7616 205.972 36.057C206.415 35.2525 206.634 34.3437 206.606 33.4256C206.642 32.4571 206.347 31.5051 205.769 30.7267C205.202 30.0263 204.469 29.4789 203.637 29.1344C202.772 28.7742 201.865 28.5248 200.938 28.3922C200.021 28.2621 199.097 28.1944 198.171 28.1898H190.209L190.141 39.0258Z" fill="url(#paint0_linear_51_18)"/>
</g>
<defs>
<linearGradient id="paint0_linear_51_18" x1="0" y1="23.966" x2="369" y2="23.966" gradientUnits="userSpaceOnUse">
<stop stop-color="#90CEA1"/>
<stop offset="0.56" stop-color="#3CBEC9"/>
<stop offset="1" stop-color="#00B3E5"/>
</linearGradient>
<clipPath id="clip0_51_18">
<rect width="369" height="48" fill="white"/>
</clipPath>
</defs>
</svg>
