<svg width="48" height="48" viewBox="0 0 48 48" fill="none" xmlns="http://www.w3.org/2000/svg">
<path d="M0 24C0 12.6863 0 7.02943 3.51472 3.51472C7.02943 0 12.6863 0 24 0C35.3137 0 40.9705 0 44.4853 3.51472C48 7.02943 48 12.6863 48 24C48 35.3137 48 40.9705 44.4853 44.4853C40.9705 48 35.3137 48 24 48C12.6863 48 7.02943 48 3.51472 44.4853C0 40.9705 0 35.3137 0 24Z" fill="#DC2626"/>
<path d="M28.8 31.2C29.4628 31.2 30.0121 31.7425 29.8805 32.3921C29.6478 33.5393 29.0826 34.6026 28.2426 35.4426C27.1175 36.5678 25.5913 37.2 24 37.2C22.4087 37.2 20.8826 36.5678 19.7574 35.4426C18.9174 34.6026 18.3522 33.5393 18.1196 32.3921C17.9879 31.7425 18.5372 31.2 19.2 31.2H28.8Z" fill="white"/>
<path d="M31.3228 21.3318C30.6826 21.5033 30.2905 22.173 30.6151 22.7508C30.9568 23.359 31.4293 23.8897 32.0042 24.3017C32.9069 24.9485 34.0058 25.2624 35.114 25.1897C36.2221 25.1171 37.2708 24.6625 38.0813 23.9034C38.8919 23.1443 39.414 22.1275 39.559 21.0265C39.7039 19.9255 39.4627 18.8083 38.8763 17.8652C38.2898 16.9223 37.3945 16.2118 36.343 15.8548C35.2914 15.4978 34.1486 15.5165 33.1093 15.9077C32.4474 16.1568 31.8536 16.5472 31.3662 17.0461C30.9031 17.5202 31.1084 18.2687 31.6824 18.6L32.2912 18.9515C33.217 19.4861 33.0344 20.8732 32.0017 21.1499L31.3228 21.3318Z" fill="white"/>
<path d="M16.6774 21.3318C17.3176 21.5033 17.7096 22.173 17.385 22.7508C17.0434 23.359 16.5708 23.8897 15.996 24.3017C15.0934 24.9485 13.9943 25.2624 12.8862 25.1897C11.778 25.1171 10.7294 24.6625 9.91884 23.9034C9.10833 23.1443 8.5861 22.1275 8.44115 21.0265C8.2962 19.9255 8.53748 18.8083 9.12391 17.8652C9.71033 16.9223 10.6056 16.2118 11.6572 15.8548C12.7087 15.4978 13.8516 15.5165 14.8909 15.9077C15.5527 16.1568 16.1466 16.5472 16.634 17.0461C17.0971 17.5202 16.8917 18.2687 16.3177 18.6L15.709 18.9515C14.7832 19.4861 14.9658 20.8732 15.9984 21.1499L16.6774 21.3318Z" fill="white"/>
</svg>
